<svg width="96" height="85" viewBox="0 0 96 85" fill="none" xmlns="http://www.w3.org/2000/svg">
<g clip-path="url(#clip0_20_2)">
<path d="M92.1673 10.5L52.3301 79.5C50.4056 82.8333 45.5944 82.8333 43.6699 79.5L3.83271 10.5C1.9082 7.16666 4.31384 3 8.16283 3H87.8372C91.6862 3 94.0918 7.16667 92.1673 10.5Z" fill="#FCFF2E" stroke="black" stroke-width="6"/>
<path d="M91.3013 10L51.4641 79C49.9245 81.6667 46.0755 81.6667 44.5359 79L4.69873 10C3.15913 7.33333 5.08364 4 8.16283 4H87.8372C90.9164 4 92.8409 7.33334 91.3013 10Z" fill="#FCFF2E" stroke="#F9C88A" stroke-width="4"/>
<path fill-rule="evenodd" clip-rule="evenodd" d="M89.8153 7.69126C78.6508 14.0806 20.6452 14.431 6.27629 7.33401C6.5444 6.58237 7.25275 6 8.16283 6H87.8372C88.8872 6 89.6687 6.77525 89.8153 7.69126Z" fill="#FFFFB5"/>
<path fill-rule="evenodd" clip-rule="evenodd" d="M49.7321 78C48.9623 79.3333 47.0378 79.3333 46.268 78L22.1877 36.2917C33.9492 48.9767 40.7119 62.5858 44.4564 70.1209C46.2719 73.7744 47.3779 76 48 76C48.6387 76 49.8893 73.6034 51.9147 69.722C55.7594 62.3541 62.3959 49.636 72.9382 37.8058L49.7321 78Z" fill="#F7931E"/>
</g>
<defs>
<clipPath id="clip0_20_2">
<rect width="96" height="85" fill="white"/>
</clipPath>
</defs>
</svg>
