<svg width="100" height="136" viewBox="0 0 100 136" fill="none" xmlns="http://www.w3.org/2000/svg">
<path d="M62.2618 52.4148L54.912 13.7701C53.8809 8.34911 46.1191 8.34902 45.0881 13.7701L37.7382 52.4148L7.40489 63.0277C2.93984 64.5899 2.93988 70.9044 7.4049 72.4666L37.7382 83.0795L45.088 121.724C46.1191 127.145 53.8809 127.145 54.9119 121.724L62.2618 83.0795L92.5951 72.4666C97.0602 70.9044 97.0601 64.5898 92.5951 63.0277L62.2618 52.4148Z" fill="#FCFF2E" stroke="black" stroke-width="6"/>
<path d="M61.3871 53.1682L53.9296 13.957C53.1047 9.62015 46.8953 9.62009 46.0704 13.957L38.6129 53.1682L7.73514 63.9715C4.16309 65.2213 4.16313 70.273 7.73514 71.5227L38.6129 82.326L46.0704 121.537C46.8953 125.874 53.1047 125.874 53.9296 121.537L61.3871 82.326L92.2649 71.5227C95.8369 70.2729 95.8369 65.2213 92.2649 63.9715L61.3871 53.1682Z" fill="#FCFF2E"/>
<path d="M61.3871 53.1682L53.9296 13.957C53.1047 9.62015 46.8953 9.62009 46.0704 13.957L38.6129 53.1682L7.73514 63.9715C4.16309 65.2213 4.16313 70.273 7.73514 71.5227L38.6129 82.326L46.0704 121.537C46.8953 125.874 53.1047 125.874 53.9296 121.537L61.3871 82.326L92.2649 71.5227C95.8369 70.2729 95.8369 65.2213 92.2649 63.9715L61.3871 53.1682Z" stroke="black" stroke-width="4"/>
<path d="M61.3871 53.1682L53.9296 13.957C53.1047 9.62015 46.8953 9.62009 46.0704 13.957L38.6129 53.1682L7.73514 63.9715C4.16309 65.2213 4.16313 70.273 7.73514 71.5227L38.6129 82.326L46.0704 121.537C46.8953 125.874 53.1047 125.874 53.9296 121.537L61.3871 82.326L92.2649 71.5227C95.8369 70.2729 95.8369 65.2213 92.2649 63.9715L61.3871 53.1682Z" stroke="#F9C88A" stroke-width="4"/>
<path fill-rule="evenodd" clip-rule="evenodd" d="M49.3723 12.7992C48.5514 22.9 47.1425 39.8778 46.5 45.5C45.8414 51.2625 45.8334 54.4769 44.316 56.6249C41.5275 60.5721 33.6422 60.9186 7.25793 66.8577C7.47001 66.4196 7.84923 66.0505 8.39563 65.8593L39.2734 55.056C39.9472 54.8203 40.4443 54.2432 40.5777 53.5419L48.0352 14.3306C48.1916 13.5083 48.7352 12.9979 49.3723 12.7992Z" fill="#FFFFB5"/>
<path fill-rule="evenodd" clip-rule="evenodd" d="M92.1803 69.3267C92.0151 69.4533 91.8232 69.5584 91.6044 69.6349L60.7266 80.4382C60.0528 80.674 59.5557 81.251 59.4223 81.9523L51.9648 121.164C51.7903 122.081 51.1341 122.61 50.4037 122.751C51.9623 103.735 57.5 79 57.5 79C57.5 79 71.3022 72.2523 92.1803 69.3267Z" fill="#F7931E"/>
</svg>
